<?xml version="1.0" encoding="utf-8"?>
<!-- Generator: Adobe Illustrator 16.0.0, SVG Export Plug-In . SVG Version: 6.00 Build 0)  -->
<!DOCTYPE svg PUBLIC "-//W3C//DTD SVG 1.1//EN" "http://www.w3.org/Graphics/SVG/1.1/DTD/svg11.dtd">
<svg version="1.1" id="Ebene_1" xmlns="http://www.w3.org/2000/svg" xmlns:xlink="http://www.w3.org/1999/xlink" x="0px" y="0px"
	 width="4725.98px" height="678.125px" viewBox="142.188 2196.875 4725.98 678.125"
	 enable-background="new 142.188 2196.875 4725.98 678.125" xml:space="preserve">
<g>
	<rect x="142.188" y="2212.5" fill="#FA3C32" width="142.188" height="620.313"/>
	<path fill="#FA3C32" d="M1431.25,2831.25v-373.438c0-148.438-54.688-254.688-220.313-254.688
		c-95.313,0-171.875,37.5-218.75,120.313c-35.938-87.499-103.125-120.313-196.875-120.313c-85.938,0-154.688,32.813-200,106.25
		l-3.125-96.875H451.563c3.125,81.25,3.125,159.375,3.125,239.063v381.25h142.188v-343.75c0-95.313,39.063-182.813,146.875-182.813
		c109.375,0,128.125,82.813,128.125,175v353.125h142.188v-345.313c0-101.563,26.563-185.938,143.75-185.938
		c109.375,0,129.688,78.125,129.688,170.313v356.25h143.75V2831.25z"/>
	<path fill="#FA3C32" d="M2578.125,2831.25v-373.438c0-148.438-54.688-254.688-220.313-254.688
		c-95.313,0-171.875,37.5-218.75,120.313c-35.938-87.499-103.126-120.313-196.875-120.313c-85.938,0-154.688,32.813-200,106.25
		l-3.125-96.875h-140.625c3.125,81.25,3.125,159.375,3.125,239.063v381.25h142.188v-343.75c0-95.313,39.063-182.813,146.875-182.813
		c109.375,0,128.125,82.813,128.125,175v353.125h142.188v-345.313c0-101.563,26.563-185.938,143.75-185.938
		c109.375,0,129.688,78.125,129.688,170.313v356.25h143.75V2831.25z"/>
</g>
<g>
	<path fill="#FA3C32" d="M2896.875,2200h18.749v135.938h-18.749V2200z"/>
	<path fill="#FA3C32" d="M2951.563,2251.563v-10.938h17.188v15.625c1.563-4.688,9.375-17.188,29.688-17.188
		c7.813,0,34.374,3.125,34.374,32.813v64.063h-17.187v-59.375c0-6.25,0-12.5-4.688-15.625c-4.688-4.688-10.938-6.25-17.188-6.25
		c-12.5,0-25,9.375-25,28.125v54.688h-17.188L2951.563,2251.563L2951.563,2251.563z"/>
	<path fill="#FA3C32" d="M3078.125,2306.25c0,7.813,3.125,17.188,20.313,17.188c7.813,0,12.5-1.563,17.188-6.25
		c1.563-3.125,3.125-6.25,3.125-9.375c0-9.375-6.25-10.938-20.313-14.063c-20.313-4.688-35.938-7.813-35.938-28.125
		c0-17.188,15.625-28.125,37.5-28.125c12.5,0,28.125,3.125,34.374,14.063c3.125,4.688,3.125,9.375,3.125,14.063h-18.75
		c0-14.063-12.5-15.625-18.749-15.625c-3.125,0-18.75,0-18.75,14.063c0,9.375,7.813,10.938,14.062,12.5
		c26.563,6.251,31.25,7.813,37.5,12.5c4.688,4.688,7.813,10.938,7.813,17.188c0,10.938-6.25,18.75-12.5,23.438
		c-7.813,4.688-18.75,6.25-28.125,6.25c-18.75,0-37.5-7.813-37.5-31.25h15.626V2306.25z"/>
	<path fill="#FA3C32" d="M3150,2240.625h17.188v-20.312l17.188-6.251v25h20.313v12.5h-20.313v56.25c0,4.688,0,12.5,12.5,12.5
		c3.125,0,6.25,0,7.813-1.563v14.063c-3.125,0-7.813,1.563-14.063,1.563c-15.625,0-23.438-4.688-23.438-20.313v-62.5H3150V2240.625
		L3150,2240.625z"/>
	<path fill="#FA3C32" d="M3228.125,2200H3250v18.75h-21.875V2200z M3229.688,2240.625h17.188v93.75h-17.188V2240.625z"/>
	<path fill="#FA3C32" d="M3270.313,2240.625h17.188v-20.312l17.188-6.251v25H3325v12.5h-20.313v56.25c0,4.688,0,12.5,12.5,12.5
		c3.125,0,6.25,0,7.813-1.563v14.063c-3.125,0-7.813,1.563-14.063,1.563c-15.625,0-23.438-4.688-23.438-20.313v-62.5h-17.188
		V2240.625L3270.313,2240.625z"/>
	<path fill="#FA3C32" d="M3365.625,2240.625v60.938c0,9.374,1.563,20.313,20.313,20.313c9.375,0,17.188-3.126,21.874-10.938
		c4.688-6.25,4.688-12.499,4.688-17.187v-53.126h18.749v76.563c0,1.562,0,12.5,0,17.187H3412.5v-15.625
		c-3.125,6.251-9.376,17.188-29.688,17.188c-23.438,0-34.375-14.063-34.375-31.25v-62.5h17.188V2240.625z"/>
	<path fill="#FA3C32" d="M3451.563,2240.625h17.188v-20.312l17.188-6.251v25h20.313v12.5h-20.313v56.25c0,4.688,0,12.5,12.5,12.5
		c3.125,0,6.25,0,7.813-1.563v14.063c-3.125,0-7.813,1.563-14.063,1.563c-15.625,0-23.438-4.688-23.438-20.313v-62.5h-17.188
		V2240.625L3451.563,2240.625z"/>
	<path fill="#FA3C32" d="M3632.813,2212.5c-3.125,0-6.25,0-10.938,0c-14.063,0-14.063,7.813-14.063,14.063v14.063h21.875v12.5
		h-21.875v81.25h-17.188v-81.25h-18.75v-12.5h18.75v-10.938c0-12.5,0-17.187,4.688-21.875c4.688-6.25,10.938-10.938,23.438-10.938
		c4.688,0,10.938,0,14.063,1.563V2212.5z"/>
	<path fill="#FA3C32" d="M3667.188,2240.625v60.938c0,9.374,1.563,20.313,20.313,20.313c9.375,0,17.188-3.126,21.875-10.938
		c4.688-6.25,4.688-12.499,4.688-17.187v-53.126h18.75v76.563c0,1.562,0,12.5,0,17.187h-18.75v-15.625
		c-3.125,6.251-9.376,17.188-29.688,17.188c-23.438,0-34.375-14.063-34.375-31.25v-62.5h17.188V2240.625z M3664.063,2200h17.188
		v18.75h-17.188V2200z M3700,2200h17.188v18.75H3700V2200z"/>
	<path fill="#FA3C32" d="M3768.75,2259.375c0-6.25,0-12.5-1.563-18.75h17.188v18.75c3.125-12.5,14.062-17.188,21.874-18.75
		c4.688,0,9.376,0,12.501,0v17.188c-1.563,0-1.563,0-3.125,0c-1.563,0-3.125,0-4.688,0c-20.313,0-25.001,12.5-25.001,28.125v50
		h-17.188L3768.75,2259.375L3768.75,2259.375z"/>
	<path fill="#FA3C32" d="M2896.875,2450h32.813l37.5,110.938L3006.25,2450h31.25v135.938h-18.75v-121.875L2975,2585.938h-17.188
		l-42.188-120.313v120.313h-18.749V2450z"/>
	<path fill="#FA3C32" d="M3087.5,2540.625c0,18.75,7.813,34.375,26.563,34.375c10.938,0,20.313-6.25,21.875-18.75h17.188
		c0,4.688-1.563,12.5-7.813,20.313c-4.688,4.688-14.063,12.5-32.813,12.5c-29.688,0-43.75-18.75-43.75-48.438
		c0-18.75,3.124-34.375,18.749-43.75c9.376-6.25,20.313-6.25,25.001-6.25c42.188,0,40.625,37.5,40.625,53.125H3087.5V2540.625z
		 M3135.938,2528.125c0-9.375-1.563-28.125-23.438-28.125c-10.938,0-25.001,6.25-25.001,28.125H3135.938z"/>
	<path fill="#FA3C32" d="M3248.438,2450h17.188v120.313c0,1.563,0,9.375,0,15.625h-17.188v-15.625
		c-1.563,3.125-3.125,6.25-7.813,9.375c-7.813,4.688-17.188,6.25-23.438,6.25c-12.501,0-40.626-6.25-40.626-48.438
		c0-35.937,20.313-51.562,42.188-51.562c20.313,0,26.563,12.499,29.688,15.625L3248.438,2450L3248.438,2450z M3242.188,2510.938
		c-3.125-4.688-10.938-9.374-20.313-9.374c-26.563,0-26.563,31.25-26.563,37.5c0,17.188,4.688,35.938,26.563,35.938
		c28.125,0,28.125-31.25,28.125-37.501C3248.438,2523.438,3245.313,2515.625,3242.188,2510.938z"/>
	<path fill="#FA3C32" d="M3298.438,2450h21.875v18.75h-21.875V2450z M3300,2490.625h17.188v93.75H3300V2490.625z"/>
	<path fill="#FA3C32" d="M3365.625,2540.625c0,18.75,7.813,34.375,26.562,34.375c10.938,0,20.313-6.25,21.875-18.75h17.188
		c0,4.688-1.563,12.5-7.813,20.313c-4.688,4.688-14.062,12.5-32.813,12.5c-29.688,0-43.75-18.75-43.75-48.438
		c0-18.75,3.125-34.375,18.75-43.75c9.375-6.25,20.313-6.25,25-6.25c42.188,0,40.625,37.5,40.625,53.125h-65.624V2540.625z
		 M3415.625,2528.125c0-9.375-1.563-28.125-23.438-28.125c-10.938,0-25,6.25-25,28.125H3415.625z"/>
	<path fill="#FA3C32" d="M3462.5,2501.563v-10.938h17.188v15.625c1.563-4.688,9.375-17.188,29.688-17.188
		c7.813,0,34.375,3.125,34.375,32.813v64.063H3525v-59.375c0-6.25,0-12.5-4.688-15.625c-4.688-4.688-10.938-6.25-17.188-6.25
		c-12.5,0-25.001,9.375-25.001,28.125v54.688h-17.188v-85.938H3462.5z"/>
	<path fill="#FA3C32" d="M3625,2462.5c-3.125,0-6.25,0-10.938,0c-14.063,0-14.063,7.813-14.063,14.063v14.063h21.875v12.5H3600
		v81.25h-17.188v-81.25h-18.75v-12.5h18.75v-10.938c0-12.5,0-17.187,4.688-21.875c4.688-6.25,10.938-10.938,23.438-10.938
		c4.688,0,10.938,0,14.063,1.563V2462.5z"/>
	<path fill="#FA3C32" d="M3684.375,2487.5c37.5,0,46.875,29.688,46.875,50c0,28.126-15.625,50-46.875,50
		s-46.875-21.875-46.875-48.438C3635.938,2515.625,3646.875,2487.5,3684.375,2487.5z M3682.813,2575.001
		c14.062,0,28.125-9.375,28.125-37.501c0-23.438-10.938-35.937-28.125-35.937c-10.938,0-29.688,7.813-29.688,35.937
		C3654.688,2557.813,3662.5,2575.001,3682.813,2575.001z"/>
	<path fill="#FA3C32" d="M3760.938,2509.375c0-6.25,0-12.5-1.563-18.75h17.188v18.75c3.125-12.5,14.062-17.188,21.874-18.75
		c4.688,0,9.376,0,12.501,0v17.188c-1.563,0-1.563,0-3.125,0c-1.563,0-3.125,0-4.688,0c-20.313,0-25.001,12.5-25.001,28.125v50
		h-17.188L3760.938,2509.375L3760.938,2509.375z"/>
	<path fill="#FA3C32" d="M3845.313,2556.25c0,7.813,3.125,17.188,20.313,17.188c7.813,0,12.5-1.563,17.188-6.25
		c1.563-3.125,3.125-6.25,3.125-9.375c0-9.375-6.25-10.938-20.313-14.063c-20.313-4.688-35.938-7.813-35.938-28.125
		c0-17.188,15.625-28.125,37.5-28.125c12.5,0,28.125,3.125,34.375,14.063c3.125,4.688,3.125,9.375,3.125,14.063h-18.75
		c0-14.063-12.5-15.625-18.75-15.625c-3.125,0-18.75,0-18.75,14.063c0,9.375,7.813,10.938,14.063,12.5
		c26.563,6.251,31.25,7.813,37.499,12.5c4.688,4.688,7.813,10.938,7.813,17.188c0,10.938-6.249,18.75-12.5,23.438
		c-7.813,4.688-18.75,6.25-28.125,6.25c-18.75,0-37.5-7.813-37.5-31.25h15.626V2556.25z"/>
	<path fill="#FA3C32" d="M3985.938,2520.313c0-4.688-1.563-20.313-18.75-20.313c-25,0-25,28.125-25,35.938
		c0,18.75,4.688,37.5,23.438,37.5c15.625,0,20.313-10.938,20.313-20.313h17.188c-1.563,18.75-14.063,34.375-37.5,34.375
		c-6.25,0-20.313-1.563-31.25-12.5c-6.25-6.25-10.938-17.188-10.938-35.938c0-39.063,23.438-50,42.188-50
		c6.25,0,20.313,1.563,28.125,10.938c6.25,7.813,7.813,15.625,7.813,20.313H3985.938L3985.938,2520.313z"/>
	<path fill="#FA3C32" d="M4028.125,2450h17.188v54.688c6.249-9.375,17.188-15.625,31.25-15.625c9.375,0,23.438,3.125,29.688,15.625
		c1.563,3.125,3.125,7.813,3.125,21.875v59.375h-18.751v-56.25c0-7.813,0-26.563-20.312-26.563c-12.5,0-20.313,7.813-21.875,12.5
		c-3.125,4.688-3.125,14.063-3.125,20.313v50h-17.188V2450z"/>
	<path fill="#FA3C32" d="M4160.938,2490.625v60.938c0,9.374,1.563,20.313,20.312,20.313c9.375,0,17.188-3.125,21.875-10.938
		c4.688-6.25,4.688-12.5,4.688-17.188v-53.125h18.75v76.563c0,1.562,0,12.5,0,17.187h-18.75v-15.625
		c-3.126,6.251-9.376,17.188-29.688,17.188c-23.438,0-34.376-14.063-34.376-31.25v-62.5h17.189V2490.625z"/>
	<path fill="#FA3C32" d="M4262.5,2501.563v-10.938h17.188v15.625c1.563-4.688,9.375-17.188,29.688-17.188
		c7.813,0,34.375,3.125,34.375,32.813v64.063H4325v-59.375c0-6.25,0-12.5-4.688-15.625c-4.688-4.688-10.938-6.25-17.188-6.25
		c-12.5,0-25,9.375-25,28.125v54.688h-17.188v-85.938H4262.5z"/>
	<path fill="#FA3C32" d="M4395.313,2592.188c0,10.938,4.687,18.75,21.874,18.75c25.001,0,25.001-17.188,25.001-43.75
		c-7.813,15.625-25.001,15.625-31.25,15.625c-9.376,0-20.313-1.563-28.125-10.938s-10.938-21.875-10.938-34.375
		c0-31.25,18.75-46.875,42.188-46.875c18.75,0,26.563,9.375,29.688,14.063v-12.5h17.188v17.188v59.375
		c0,23.438,0,31.25-4.688,39.063c-7.813,15.625-26.563,17.188-39.063,17.188c-37.5,0-39.063-17.188-39.063-29.688h17.188V2592.188z
		 M4437.5,2560.938c3.125-4.687,6.25-9.374,6.25-26.563c0-12.5-3.126-18.75-7.813-23.438c-4.688-4.688-12.5-7.813-20.313-7.813
		c-21.875,0-25,21.876-25,34.375c0,14.063,4.688,32.813,26.563,32.813C4426.563,2570.313,4432.813,2565.625,4437.5,2560.938z"/>
	<path fill="#FA3C32" d="M4567.188,2490.625v60.938c0,9.374,1.563,20.313,20.312,20.313c9.375,0,17.188-3.125,21.875-10.938
		c4.688-6.25,4.688-12.5,4.688-17.188v-53.125h18.75v76.563c0,1.562,0,12.5,0,17.187h-18.75v-15.625
		c-3.126,6.251-9.376,17.188-29.688,17.188c-23.438,0-34.376-14.063-34.376-31.25v-62.5h17.189V2490.625z"/>
	<path fill="#FA3C32" d="M4668.75,2501.563v-10.938h17.188v15.625c1.563-4.688,9.375-17.188,29.688-17.188
		c7.813,0,34.375,3.125,34.375,32.813v64.063h-18.75v-59.375c0-6.25,0-12.5-4.688-15.625c-4.688-4.688-10.938-6.25-17.188-6.25
		c-12.5,0-25,9.375-25,28.125v54.688h-17.188v-85.938H4668.75z"/>
	<path fill="#FA3C32" d="M4850,2450h17.188v120.313c0,1.563,0,9.375,0,15.625H4850v-15.625c-1.563,3.125-3.126,6.25-7.813,9.375
		c-7.813,4.688-17.188,6.25-23.438,6.25c-12.5,0-40.625-6.25-40.625-48.438c0-35.937,20.312-51.562,42.188-51.562
		c20.313,0,26.563,12.499,29.688,15.625V2450z M4843.75,2510.938c-3.125-4.688-10.938-9.374-20.313-9.374
		c-26.563,0-26.563,31.25-26.563,37.5c0,17.188,4.688,35.938,26.563,35.938c28.125,0,28.125-31.25,28.125-37.501
		C4850,2523.438,4846.875,2515.625,4843.75,2510.938z"/>
	<path fill="#FA3C32" d="M2896.875,2700h32.813l37.5,110.938L3006.25,2700h31.25v135.938h-18.75v-121.875L2975,2835.938h-17.188
		l-42.188-120.313v120.313h-18.749V2700z"/>
	<path fill="#FA3C32" d="M3087.5,2790.625c0,18.75,7.813,34.375,26.563,34.375c10.938,0,20.313-6.25,21.875-18.75h17.188
		c0,4.688-1.563,12.5-7.813,20.313c-4.688,4.688-14.063,12.501-32.813,12.501c-29.688,0-43.75-18.75-43.75-48.438
		c0-18.75,3.124-34.375,18.749-43.751c9.376-6.25,20.313-6.25,25.001-6.25c42.188,0,40.625,37.5,40.625,53.125H3087.5V2790.625z
		 M3135.938,2778.125c0-9.374-1.563-28.125-23.438-28.125c-10.938,0-25.001,6.25-25.001,28.125H3135.938z"/>
	<path fill="#FA3C32" d="M3248.438,2700h17.188v120.313c0,1.563,0,9.375,0,15.625h-17.188v-15.625
		c-1.563,3.125-3.125,6.25-7.813,9.375c-7.813,4.688-17.188,6.25-23.438,6.25c-12.501,0-40.626-6.25-40.626-48.438
		c0-35.938,20.313-51.563,42.188-51.563c20.313,0,26.563,12.5,29.688,15.625L3248.438,2700L3248.438,2700z M3242.188,2760.938
		c-3.125-4.688-10.938-9.375-20.313-9.375c-26.563,0-26.563,31.25-26.563,37.5c0,17.188,4.688,35.938,26.563,35.938
		c28.125,0,28.125-31.25,28.125-37.5C3248.438,2773.438,3245.313,2765.625,3242.188,2760.938z"/>
	<path fill="#FA3C32" d="M3298.438,2700h21.875v18.75h-21.875V2700z M3300,2740.625h17.188v93.75H3300V2740.625z"/>
	<path fill="#FA3C32" d="M3365.625,2790.625c0,18.75,7.813,34.375,26.562,34.375c10.938,0,20.313-6.25,21.875-18.75h17.188
		c0,4.688-1.563,12.5-7.813,20.313c-4.688,4.688-14.062,12.501-32.813,12.501c-29.688,0-43.75-18.75-43.75-48.438
		c0-18.75,3.125-34.375,18.75-43.751c9.375-6.25,20.313-6.25,25-6.25c42.188,0,40.625,37.5,40.625,53.125h-65.624V2790.625z
		 M3415.625,2778.125c0-9.374-1.563-28.125-23.438-28.125c-10.938,0-25,6.25-25,28.125H3415.625z"/>
	<path fill="#FA3C32" d="M3462.5,2751.563v-10.938h17.188v15.625c1.563-4.688,9.375-17.188,29.688-17.188
		c7.813,0,34.375,3.125,34.375,32.813v64.063H3525v-59.375c0-6.25,0-12.5-4.688-15.625c-4.688-4.688-10.938-6.25-17.188-6.25
		c-12.5,0-25.001,9.375-25.001,28.125v54.688h-17.188v-85.938H3462.5z"/>
	<path fill="#FA3C32" d="M3589.063,2790.625c0,18.75,7.813,34.375,26.563,34.375c10.937,0,20.313-6.25,21.874-18.75h17.188
		c0,4.688-1.563,12.5-7.813,20.313c-4.688,4.688-14.063,12.501-32.813,12.501c-29.687,0-43.75-18.75-43.75-48.438
		c0-18.75,3.125-34.375,18.75-43.751c9.375-6.25,20.313-6.25,25-6.25c42.188,0,40.626,37.5,40.626,53.125h-65.625V2790.625z
		 M3639.063,2778.125c0-9.374-1.563-28.125-23.438-28.125c-10.938,0-25.001,6.25-25.001,28.125H3639.063z"/>
	<path fill="#FA3C32" d="M3685.938,2751.563v-10.938h17.188v15.625c1.563-4.688,9.375-17.188,29.688-17.188
		c7.813,0,34.374,3.125,34.374,32.813v64.063H3750v-59.375c0-6.25,0-12.5-4.688-15.625c-4.688-4.688-10.938-6.25-17.188-6.25
		c-12.5,0-25,9.375-25,28.125v54.688h-17.188L3685.938,2751.563L3685.938,2751.563z"/>
	<path fill="#FA3C32" d="M3787.5,2740.625h17.188v-20.313l17.188-6.25v25h20.313v12.5h-20.313v56.25c0,4.688,0,12.5,12.5,12.5
		c3.125,0,6.25,0,7.813-1.563v14.063c-3.125,0-7.813,1.563-14.063,1.563c-15.625,0-23.438-4.688-23.438-20.313v-62.5H3787.5
		V2740.625L3787.5,2740.625z"/>
	<path fill="#FA3C32" d="M3871.875,2740.625l23.438,75.001l23.438-75.001h23.438l21.875,73.438l23.438-73.438h18.75l-32.813,93.75
		h-20.313l-21.875-78.125l-25,78.125h-20.313l-31.25-93.75H3871.875z"/>
	<path fill="#FA3C32" d="M4023.438,2700h21.875v18.75h-21.875V2700z M4025,2740.625h17.188v93.75H4025V2740.625z"/>
	<path fill="#FA3C32" d="M4134.375,2770.313c0-4.688-1.563-20.313-18.75-20.313c-25.001,0-25.001,28.125-25.001,35.938
		c0,18.75,4.688,37.501,23.438,37.501c15.625,0,20.312-10.938,20.312-20.313h17.188c-1.563,18.75-14.062,34.375-37.499,34.375
		c-6.25,0-20.313-1.563-31.251-12.5c-6.249-6.25-10.938-17.188-10.938-35.938c0-39.063,23.438-50,42.188-50
		c6.249,0,20.312,1.563,28.124,10.938c6.25,7.813,7.813,15.625,7.813,20.313H4134.375L4134.375,2770.313z"/>
	<path fill="#FA3C32" d="M4175,2698.438h17.188v81.25l35.938-39.063h23.438l-39.063,40.625l42.188,54.688h-23.438l-37.5-50v50
		h-17.188v-137.5H4175z"/>
	<path fill="#FA3C32" d="M4273.438,2700h17.188v134.375h-17.188V2700z"/>
	<path fill="#FA3C32" d="M4343.75,2740.625v60.938c0,9.375,1.563,20.313,20.313,20.313c9.375,0,17.188-3.125,21.874-10.938
		c4.688-6.25,4.688-12.5,4.688-17.188v-53.125h18.75v76.563c0,1.563,0,12.5,0,17.188h-18.75v-15.625
		c-3.125,6.25-9.375,17.188-29.688,17.188c-23.438,0-34.375-14.063-34.375-31.25v-62.5h17.188V2740.625z"/>
	<path fill="#FA3C32" d="M4445.313,2751.563v-10.938h17.188v15.625c1.563-4.688,9.375-17.188,29.688-17.188
		c7.813,0,34.375,3.125,34.375,32.813v64.063h-18.75v-59.375c0-6.25,0-12.5-4.688-15.625c-4.688-4.688-10.938-6.25-17.188-6.25
		c-12.5,0-25,9.375-25,28.125v54.688h-17.188v-85.938H4445.313z"/>
	<path fill="#FA3C32" d="M4578.125,2842.188c0,10.938,4.688,18.75,21.875,18.75c25,0,25-17.188,25-43.75
		c-7.813,15.625-25,15.625-31.25,15.625c-9.375,0-20.313-1.563-28.125-10.938s-10.938-21.875-10.938-34.375
		c0-31.25,18.75-46.875,42.188-46.875c18.75,0,26.563,9.375,29.688,14.063v-12.5h17.188v17.188v59.375
		c0,23.438,0,31.25-4.688,39.063C4631.25,2873.438,4612.5,2875,4600,2875c-37.5,0-39.063-17.188-39.063-29.688h17.188V2842.188z
		 M4618.75,2810.938c3.125-4.688,6.25-9.375,6.25-26.562c0-12.501-3.125-18.75-7.813-23.438c-4.688-4.688-12.5-7.813-20.313-7.813
		c-21.875,0-25,21.875-25,34.374c0,14.063,4.688,32.813,26.563,32.813C4607.813,2820.313,4614.063,2815.625,4618.75,2810.938z"/>
</g>
</svg>
